<?xml version="1.0" encoding="utf-8"?>
<!-- Svg Vector Icons : http://www.onlinewebfonts.com/icon -->
<!DOCTYPE svg PUBLIC "-//W3C//DTD SVG 1.1//EN" "http://www.w3.org/Graphics/SVG/1.1/DTD/svg11.dtd">
<svg version="1.1" xmlns="http://www.w3.org/2000/svg" xmlns:xlink="http://www.w3.org/1999/xlink" x="0px" y="0px" viewBox="0 0 1000 1000" enable-background="new 0 0 1000 1000" xml:space="preserve">
<metadata> Svg Vector Icons : http://www.onlinewebfonts.com/icon </metadata>
<g><path d="M516.7,923.4l-14.5,8.4c-9.6,5.6-20.2,8.2-30.6,8.2c-21.1,0-41.7-11-53.1-30.6l-30.7-53c-8.1-14.1-10.4-30.8-6.1-46.5c4.2-15.7,14.5-29.1,28.5-37.2l13.8-8c-3.2-16.6-4.8-33.4-4.8-50.3c0-16.8,1.6-33.6,4.8-50.2l-13.9-8c-29.3-16.9-39.3-54.4-22.4-83.7l30.6-53c8.2-14.1,21.6-24.4,37.2-28.6c5.2-1.4,10.5-2.1,15.9-2.1c10.7,0,21.3,2.8,30.6,8.2l14.5,8.3c14-11.9,29.3-22.1,45.3-31c-23.8-11.6-50.9-20.8-82.1-26.8v-30.3c72.2-34.5,122.5-107.6,122.5-192.9C602.3,106,506.3,10,387.9,10c-118.4,0-214.4,96-214.4,214.4c0,85.4,50.3,158.5,122.5,192.9v30.3C51.9,494.4,51,730.8,51,867.5c0,106.8,331.8,138.6,529.6,95.5C557.8,952.5,536,939.8,516.7,923.4z"/><path d="M893.7,793.7l55.2,31.8l-30.6,53.1l-55.8-32.2c-33.2,42.1-81.4,71.1-137,79.1l0.1,64.4l-61.3,0.1v-64.4c-55.5-8-103.7-37-136.9-79.1l-55.8,32.2l-30.7-53l55.3-31.9c-9.9-24.6-15.6-51.3-15.6-79.4c0-28.1,5.8-54.8,15.6-79.3l-55.3-31.9l30.6-53l55.8,32.2c33.3-42.1,81.5-71.2,137-79.2v-64.4h61.3v64.4c55.5,8,103.7,37,137,79.1l55.7-32.2l30.7,53.1L893.7,635c9.9,24.6,15.6,51.3,15.6,79.4S903.6,769.1,893.7,793.7z M695,590.8c-68.2,0-123.5,55.3-123.5,123.5c0,68.2,55.2,123.5,123.5,123.5c68.2,0,123.5-55.3,123.5-123.5C818.5,646.1,763.2,590.8,695,590.8z"/></g>
</svg>