<svg viewBox="0 -23 512 512" xmlns="http://www.w3.org/2000/svg"><path d="m512 333.300781-175.902344 131.699219h-336.097656v-150h66.398438l45.300781-39.902344c39.601562-34.796875 99-34.796875 138.601562 0l7.199219 6.300782c2.699219 2.402343 6.300781 3.601562 9.902344 3.601562h93.597656c0 27.898438-19.199219 51.300781-45 57.898438-4.800781 1.5-9.902344 2.101562-15 2.101562h-76.199219v30h118.800781l86.398438-57c26.699219-17.402344 63.398438-10.800781 82 15.300781zm0 0" fill="#ffbd86"/><path d="m381.097656 112.5-65.097656-112.5-65.097656 112.5c-6.300782 11.398438-9.902344 24.300781-9.902344 37.5 0 41.398438 33.601562 75 75 75s75-33.601562 75-75c0-13.199219-3.601562-26.101562-9.902344-37.5zm0 0" fill="#ff5b5b"/><path d="m391 150c0 41.398438-33.601562 75-75 75v-225l65.097656 112.5c6.300782 11.398438 9.902344 24.300781 9.902344 37.5zm0 0" fill="#ff001e"/><g fill="#f6a96c"><path d="m316 342.898438v-57.898438h45c0 27.898438-19.199219 51.300781-45 57.898438zm0 0"/><path d="m512 333.300781-175.902344 131.699219h-20.097656v-90h27.597656l86.402344-57c26.699219-17.402344 63.398438-10.800781 82 15.300781zm0 0"/></g></svg>